# xmcd
#
# Track frame offsets:
#	150
#	10977
#	22910
#	34452
#	44440
#	54310
#	65477
#	79135
#	92337
#	106510
#	115972
#	128062
#	138662
#	151022
#	164567
#	176017
#	189292
#	201772
#	213305
#	224105
#	234982
#	245202
#	257785
#	270085
#	282797
#	295897
# Disc length: 4128 seconds
# Revision: 1
# Processed by: cddbd v1.5.1PL0 Copyright (c) Steve Scherf et al.
#
# Submitted via: libkcddb 0.10
#
DISCID=72101e1a
DTITLE=Orioles - The Jubilee Recordings [CD 4)
DYEAR=1900
DGENRE=Unknown
TTITLE0=Don't Stop
TTITLE1=I Promise You
TTITLE2=My Baby's Gonna Get It
TTITLE3=Baby, I Love You So
TTITLE4=Once Upon A Time
TTITLE5=I Don't Want To Take A Chance
TTITLE6=Wanted
TTITLE7=I'm Beginning To Think You Care For Me
TTITLE8=Yes Indeed
TTITLE9=Don't Keep It To Yourself
TTITLE10=I Only Have Eyes For You
TTITLE11=Once In A While
TTITLE12=Good
TTITLE13=Piccadilly
TTITLE14=That's How I Feel Without You
TTITLE15=Love Birds
TTITLE16=Don't Cry Baby
TTITLE17=See See Rider
TTITLE18=Till Then
TTITLE19=Till Then
TTITLE20=Feeling Low
TTITLE21=Good Looking Baby
TTITLE22=Along About Sundown
TTITLE23=You Belong To Me
TTITLE24=Hold Me, Thrill Me, Kiss Me
TTITLE25=Teardrops On My Pillow
EXTD=
EXTT0=
EXTT1=
EXTT2=
EXTT3=
EXTT4=
EXTT5=
EXTT6=
EXTT7=
EXTT8=
EXTT9=
EXTT10=
EXTT11=
EXTT12=
EXTT13=
EXTT14=
EXTT15=
EXTT16=
EXTT17=
EXTT18=
EXTT19=
EXTT20=
EXTT21=
EXTT22=
EXTT23=
EXTT24=
EXTT25=
PLAYORDER=
